<svg width="289" height="289" viewBox="0 0 289 289" fill="none" xmlns="http://www.w3.org/2000/svg">
<path d="M192.191 36.8937C179.579 44.1072 170.683 56.2394 159.904 65.9787C146.496 78.0448 130.177 86.4114 112.554 90.2547C98.1039 93.3817 83.0066 93.4279 69.0826 98.3467C41.9166 107.878 23.3107 136.165 22.8426 164.927C22.3744 193.688 38.7376 221.571 62.7881 237.338C70.9791 242.711 79.9462 246.795 89.3761 249.447C107.063 254.424 125.819 254.204 144.095 252.303C175.666 249.014 208.762 231.084 228.663 205.808C237.533 194.511 245.031 182.2 250.997 169.134C260.852 147.65 266.45 124.459 267.481 100.844C268.319 80.6137 267.481 58.1873 251.43 43.4425C235.379 28.6977 211.005 26.1256 192.191 36.8937Z" fill="#0097F6"/>
<path opacity="0.7" d="M192.191 36.8937C179.579 44.1072 170.683 56.2394 159.904 65.9787C146.496 78.0448 130.177 86.4114 112.554 90.2547C98.1039 93.3817 83.0066 93.4279 69.0826 98.3467C41.9166 107.878 23.3107 136.165 22.8426 164.927C22.3744 193.688 38.7376 221.571 62.7881 237.338C70.9791 242.711 79.9462 246.795 89.3761 249.447C107.063 254.424 125.819 254.204 144.095 252.303C175.666 249.014 208.762 231.084 228.663 205.808C237.533 194.511 245.031 182.2 250.997 169.134C260.852 147.65 266.45 124.459 267.481 100.844C268.319 80.6137 267.481 58.1873 251.43 43.4425C235.379 28.6977 211.005 26.1256 192.191 36.8937Z" fill="white"/>
<path d="M159.008 268.51C216.254 268.51 262.66 256.011 262.66 240.592C262.66 225.174 216.254 212.675 159.008 212.675C101.762 212.675 55.355 225.174 55.355 240.592C55.355 256.011 101.762 268.51 159.008 268.51Z" fill="#0097F6"/>
<path opacity="0.5" d="M159.008 268.51C216.254 268.51 262.66 256.011 262.66 240.592C262.66 225.174 216.254 212.675 159.008 212.675C101.762 212.675 55.355 225.174 55.355 240.592C55.355 256.011 101.762 268.51 159.008 268.51Z" fill="white"/>
<path d="M171.643 39.4774H49.7832C46.9262 39.4774 44.6101 41.7935 44.6101 44.6505V112.964C44.6101 115.821 46.9262 118.137 49.7832 118.137H171.643C174.5 118.137 176.816 115.821 176.816 112.964V44.6505C176.816 41.7935 174.5 39.4774 171.643 39.4774Z" fill="white"/>
<path d="M176.816 44.6505V46.6966H44.6101V44.6505C44.6101 43.2758 45.1542 41.957 46.1235 40.9823C47.0928 40.0076 48.4086 39.4561 49.7832 39.4485H171.666C172.346 39.4508 173.019 39.5872 173.646 39.8501C174.273 40.113 174.843 40.4971 175.321 40.9803C175.799 41.4636 176.178 42.0366 176.434 42.6664C176.691 43.2962 176.821 43.9704 176.816 44.6505Z" fill="#0097F6"/>
<path d="M171.643 39.4774H49.7832C46.9262 39.4774 44.6101 41.7935 44.6101 44.6505V112.964C44.6101 115.821 46.9262 118.137 49.7832 118.137H171.643C174.5 118.137 176.816 115.821 176.816 112.964V44.6505C176.816 41.7935 174.5 39.4774 171.643 39.4774Z" stroke="#263238" stroke-linecap="round" stroke-linejoin="round"/>
<path d="M176.816 44.6505V46.6966H44.6101V44.6505C44.6101 43.2758 45.1542 41.957 46.1235 40.9823C47.0928 40.0076 48.4086 39.4561 49.7832 39.4485H171.666C172.346 39.4508 173.019 39.5872 173.646 39.8501C174.273 40.113 174.843 40.4971 175.321 40.9803C175.799 41.4636 176.178 42.0366 176.434 42.6664C176.691 43.2962 176.821 43.9704 176.816 44.6505Z" stroke="#263238" stroke-linecap="round" stroke-linejoin="round"/>
<path d="M59.459 43.0841C59.4601 43.3461 59.3835 43.6026 59.2387 43.821C59.094 44.0394 58.8877 44.21 58.6459 44.3111C58.4042 44.4121 58.1378 44.4392 57.8807 44.3887C57.6236 44.3383 57.3872 44.2127 57.2015 44.0278C57.0158 43.843 56.8892 43.6071 56.8376 43.3502C56.7861 43.0933 56.812 42.8269 56.912 42.5847C57.012 42.3425 57.1816 42.1354 57.3994 41.9897C57.6172 41.844 57.8733 41.7662 58.1354 41.7662C58.4854 41.7662 58.8212 41.9049 59.0693 42.1519C59.3173 42.3988 59.4575 42.734 59.459 43.0841Z" fill="#263238"/>
<path d="M66.366 43.0841C66.3671 43.3461 66.2905 43.6026 66.1457 43.821C66.001 44.0394 65.7947 44.21 65.5529 44.3111C65.3111 44.4121 65.0448 44.4392 64.7877 44.3887C64.5306 44.3383 64.2942 44.2127 64.1085 44.0278C63.9228 43.843 63.7962 43.6071 63.7446 43.3502C63.6931 43.0933 63.7189 42.8269 63.8189 42.5847C63.919 42.3425 64.0886 42.1354 64.3064 41.9897C64.5242 41.844 64.7803 41.7662 65.0424 41.7662C65.3924 41.7662 65.7282 41.9049 65.9763 42.1519C66.2243 42.3988 66.3644 42.734 66.366 43.0841Z" fill="#263238"/>
<path d="M71.9496 44.4077C72.6806 44.4077 73.2732 43.8151 73.2732 43.0841C73.2732 42.3531 72.6806 41.7605 71.9496 41.7605C71.2186 41.7605 70.626 42.3531 70.626 43.0841C70.626 43.8151 71.2186 44.4077 71.9496 44.4077Z" fill="#263238"/>
<path d="M91.9598 52.4246H54.5806C53.4027 52.4246 52.4478 53.3795 52.4478 54.5574V72.539C52.4478 73.7169 53.4027 74.6718 54.5806 74.6718H91.9598C93.1378 74.6718 94.0927 73.7169 94.0927 72.539V54.5574C94.0927 53.3795 93.1378 52.4246 91.9598 52.4246Z" stroke="#263238" stroke-linecap="round" stroke-linejoin="round"/>
<path d="M54.8984 71.8743H91.0061" stroke="#263238" stroke-linecap="round" stroke-linejoin="round"/>
<path d="M61.7708 67.626H57.5803V71.8165H61.7708V67.626Z" fill="#0097F6" stroke="#263238" stroke-miterlimit="10"/>
<path d="M67.9034 62.1177H63.7129V71.8743H67.9034V62.1177Z" fill="#0097F6" stroke="#263238" stroke-miterlimit="10"/>
<path d="M74.8106 63.7938H70.6201V71.9725H74.8106V63.7938Z" fill="#0097F6" stroke="#263238" stroke-miterlimit="10"/>
<path d="M82.0704 55.6499H77.8799V71.6894H82.0704V55.6499Z" fill="#0097F6" stroke="#263238" stroke-miterlimit="10"/>
<path d="M89.3243 55.777H85.1338V71.8165H89.3243V55.777Z" fill="#0097F6" stroke="#263238" stroke-miterlimit="10"/>
<path d="M145.725 75.822C152.196 75.822 157.441 70.5766 157.441 64.106C157.441 57.6354 152.196 52.3899 145.725 52.3899C139.255 52.3899 134.009 57.6354 134.009 64.106C134.009 70.5766 139.255 75.822 145.725 75.822Z" fill="#0097F6" stroke="#263238" stroke-miterlimit="10"/>
<path d="M146.685 71.4119V72.6141H144.72V71.4119C143.913 71.2166 143.199 70.7463 142.701 70.0817C142.203 69.4172 141.952 68.5999 141.992 67.7705V67.2271L144.217 66.9844V67.5624C144.217 68.6779 144.795 69.3542 145.702 69.3542C145.899 69.3705 146.097 69.344 146.283 69.2766C146.469 69.2091 146.638 69.1023 146.779 68.9633C146.919 68.8244 147.028 68.6567 147.098 68.4718C147.167 68.2868 147.196 68.089 147.182 67.8918C147.182 66.8225 146.182 65.9035 145.003 64.9267C143.604 63.7707 142.211 62.3951 142.211 60.453C142.211 58.5109 143.124 57.1988 144.72 56.8058V55.5978H146.685V56.7942C148.298 57.1699 149.234 58.5282 149.234 60.4645V60.8576L147.009 61.0946V60.69C147.009 59.534 146.552 58.8982 145.743 58.8982C144.934 58.8982 144.477 59.401 144.477 60.3605C144.477 61.4298 145.506 62.3257 146.662 63.3256C148.037 64.4816 149.454 65.8573 149.454 67.7994C149.488 68.6303 149.229 69.4468 148.723 70.1068C148.217 70.7669 147.496 71.2287 146.685 71.4119Z" fill="#263238"/>
<path d="M51.4768 86.0353H54.8986" stroke="#263238" stroke-linecap="round" stroke-linejoin="round"/>
<path d="M51.4768 92.6476H54.8986" stroke="#263238" stroke-linecap="round" stroke-linejoin="round"/>
<path d="M51.4768 99.2657H54.8986" stroke="#263238" stroke-linecap="round" stroke-linejoin="round"/>
<path d="M51.4768 105.878H54.8986" stroke="#263238" stroke-linecap="round" stroke-linejoin="round"/>
<path d="M62.4414 110.872V108.213" stroke="#263238" stroke-linecap="round" stroke-linejoin="round"/>
<path d="M67.863 110.872V108.213" stroke="#263238" stroke-linecap="round" stroke-linejoin="round"/>
<path d="M73.2847 110.872V108.213" stroke="#263238" stroke-linecap="round" stroke-linejoin="round"/>
<path d="M78.7122 110.872V108.213" stroke="#263238" stroke-linecap="round" stroke-linejoin="round"/>
<path d="M84.1338 110.872V108.213" stroke="#263238" stroke-linecap="round" stroke-linejoin="round"/>
<path d="M89.5554 110.872V108.213" stroke="#263238" stroke-linecap="round" stroke-linejoin="round"/>
<path d="M94.9771 110.872V108.213" stroke="#263238" stroke-linecap="round" stroke-linejoin="round"/>
<path d="M100.405 110.872V108.213" stroke="#263238" stroke-linecap="round" stroke-linejoin="round"/>
<path d="M105.826 110.872V108.213" stroke="#263238" stroke-linecap="round" stroke-linejoin="round"/>
<path d="M111.248 110.872V108.213" stroke="#263238" stroke-linecap="round" stroke-linejoin="round"/>
<path d="M116.669 110.872V108.213" stroke="#263238" stroke-linecap="round" stroke-linejoin="round"/>
<path d="M122.097 110.872V108.213" stroke="#263238" stroke-linecap="round" stroke-linejoin="round"/>
<path d="M127.518 110.872V108.213" stroke="#263238" stroke-linecap="round" stroke-linejoin="round"/>
<path d="M132.94 110.872V108.213" stroke="#263238" stroke-linecap="round" stroke-linejoin="round"/>
<path d="M138.362 110.872V108.213" stroke="#263238" stroke-linecap="round" stroke-linejoin="round"/>
<path d="M143.581 110.872V108.213" stroke="#263238" stroke-linecap="round" stroke-linejoin="round"/>
<path d="M148.8 110.872V108.213" stroke="#263238" stroke-linecap="round" stroke-linejoin="round"/>
<path d="M154.014 110.872V108.213" stroke="#263238" stroke-linecap="round" stroke-linejoin="round"/>
<path d="M167.817 81.9894V107.687C167.817 109.45 166.025 110.872 163.817 110.872H55.4881C54.8285 110.895 54.1724 110.766 53.5709 110.495C52.9694 110.223 52.4387 109.816 52.0201 109.306C51.6585 108.842 51.4558 108.275 51.4421 107.687V81.9894C51.4421 80.2554 53.2339 78.8046 55.4419 78.8046H163.817C166.025 78.8046 167.817 80.2265 167.817 81.9894Z" stroke="#0097F6" stroke-linecap="round" stroke-linejoin="round"/>
<path d="M134.847 32.2177L100.266 78.8045L87.041 96.6184L72.591 87.4167L54.91 110.872H54.6557C54.1013 110.872 53.5564 110.728 53.0749 110.453C52.5933 110.179 52.1919 109.783 51.9102 109.306L71.776 82.943L86.226 92.1274L96.1156 78.8334L132.177 30.2814L134.847 32.2177Z" fill="#263238"/>
<path d="M126.073 32.8073L138.784 25.1025L135.269 38.4312L133.027 32.264L126.073 32.8073Z" fill="#263238"/>
<path d="M246.361 179.48H43.0841L20.2993 199.739" stroke="#263238" stroke-linecap="round" stroke-linejoin="round"/>
<path d="M43.2112 165.296V125.906" stroke="#263238" stroke-linecap="round" stroke-linejoin="round"/>
<path d="M43.2112 177.192V169.574" stroke="#263238" stroke-linecap="round" stroke-linejoin="round"/>
<path d="M234.125 83.6481C234.125 83.6481 234.125 81.2668 230.79 77.9375C227.454 74.6082 225.316 72.7008 225.316 72.7008C225.316 72.7008 223.645 78.1745 226.744 81.5095C229.019 83.8588 231.488 86.0127 234.125 87.9484V83.6481Z" fill="#0097F6"/>
<path d="M229.287 98.5201C229.287 98.5201 229.287 96.1388 225.952 92.8037C222.617 89.4686 220.478 87.567 220.478 87.567C220.478 87.567 218.813 93.0407 221.906 96.3757C224.184 98.7238 226.653 100.879 229.287 102.82V98.5201Z" fill="#0097F6"/>
<path d="M233.911 87.7057C233.911 87.7057 234.165 85.3358 237.83 82.3707C241.494 79.4056 243.829 77.7467 243.829 77.7467C243.829 77.7467 244.904 83.3822 241.477 86.3531C238.965 88.4439 236.284 90.3212 233.46 91.9655L233.911 87.7057Z" fill="#0097F6"/>
<path d="M228.067 105.265C228.067 105.265 228.57 102.953 232.524 100.375C236.477 97.7976 238.968 96.3988 238.968 96.3988C238.968 96.3988 239.448 102.104 235.743 104.716C233.027 106.531 230.164 108.115 227.183 109.45L228.067 105.265Z" fill="#0097F6"/>
<path d="M229.171 124.403C229.171 124.403 229.171 122.022 232.5 118.692C235.83 115.363 237.974 113.456 237.974 113.456C237.974 113.456 239.645 118.935 236.546 122.264C234.274 124.617 231.807 126.773 229.171 128.709V124.403Z" fill="#0097F6"/>
<path d="M229.113 129.079C229.113 129.079 229.449 126.721 226.622 122.952C223.796 119.184 221.952 116.987 221.952 116.987C221.952 116.987 219.536 122.189 222.12 125.912C224.04 128.555 226.179 131.034 228.512 133.321L229.113 129.079Z" fill="#0097F6"/>
<path d="M225.824 142.922C225.824 142.922 225.824 140.546 229.16 137.211C232.495 133.876 234.633 132.009 234.633 132.009C234.633 132.009 236.304 137.483 233.206 140.812C230.93 143.164 228.461 145.319 225.824 147.257V142.922Z" fill="#0097F6"/>
<path d="M228.05 155.482C228.05 155.482 227.472 153.17 229.836 149.124C232.2 145.078 233.807 142.679 233.807 142.679C233.807 142.679 236.801 147.558 234.656 151.563C233.048 154.41 231.203 157.117 229.142 159.655L228.05 155.482Z" fill="#0097F6"/>
<path d="M234.425 83.0586C234.257 85.5358 233.952 88.0018 233.512 90.4454C232.194 97.2543 228.888 101.647 227.582 107.785C226.276 113.924 230.05 121.86 229.038 129.749C228.027 137.639 224.946 142.038 225.813 147.309C226.68 152.58 231.304 166.845 231.304 166.845" stroke="#263238" stroke-width="1.17749" stroke-linecap="round" stroke-linejoin="round"/>
<path d="M233.882 89.2895L237.471 86.5266" stroke="#263238" stroke-width="1.17749" stroke-linecap="round" stroke-linejoin="round"/>
<path d="M234.044 86.1162L232.547 83.4401" stroke="#263238" stroke-width="1.17749" stroke-linecap="round" stroke-linejoin="round"/>
<path d="M227.784 107.508C227.784 107.508 230.79 105.248 233.882 102.994" stroke="#263238" stroke-width="1.17749" stroke-linecap="round" stroke-linejoin="round"/>
<path d="M229.287 102.791C229.287 102.791 226.778 97.8785 223.94 94.6185" stroke="#263238" stroke-width="1.17749" stroke-linecap="round" stroke-linejoin="round"/>
<path d="M229.287 127.79C231.009 124.627 233.18 121.73 235.732 119.189" stroke="#263238" stroke-width="1.17749" stroke-linecap="round" stroke-linejoin="round"/>
<path d="M228.703 131.131C227.781 128.98 226.683 126.91 225.42 124.94C223.686 122.351 223.408 122.016 223.408 122.016" stroke="#263238" stroke-width="1.17749" stroke-linecap="round" stroke-linejoin="round"/>
<path d="M225.824 147.303C226.588 145.411 227.494 143.579 228.535 141.824C229.575 140.19 230.746 138.643 232.038 137.2" stroke="#263238" stroke-width="1.17749" stroke-linecap="round" stroke-linejoin="round"/>
<path d="M229.137 159.626C228.962 157.82 229.273 156 230.038 154.355C231.292 151.933 232.709 148.754 233.298 147.506" stroke="#263238" stroke-width="1.17749" stroke-linecap="round" stroke-linejoin="round"/>
<path d="M212.299 115.45C212.299 115.45 212.039 113.964 213.767 111.508C215.496 109.051 216.657 107.624 216.657 107.624C216.657 107.624 218.293 110.872 216.715 113.299C215.543 115.018 214.228 116.634 212.785 118.132L212.299 115.45Z" fill="#0097F6"/>
<path d="M216.947 124.27C216.947 124.27 216.686 122.773 218.415 120.322C220.143 117.872 221.305 116.444 221.305 116.444C221.305 116.444 222.94 119.698 221.362 122.12C220.192 123.839 218.877 125.455 217.432 126.952L216.947 124.27Z" fill="#0097F6"/>
<path d="M212.872 117.97C212.872 117.97 212.467 116.513 209.837 115.08C207.207 113.646 205.571 112.826 205.571 112.826C205.571 112.826 205.508 116.45 207.987 117.97C209.788 119.009 211.674 119.894 213.623 120.617L212.872 117.97Z" fill="#0097F6"/>
<path d="M218.444 128.345C218.444 128.345 217.866 126.94 215.114 125.767C212.363 124.594 210.635 123.975 210.635 123.975C210.635 123.975 210.953 127.599 213.571 128.836C215.472 129.679 217.44 130.362 219.455 130.877L218.444 128.345Z" fill="#0097F6"/>
<path d="M219.831 140.454C219.831 140.454 219.571 138.963 217.12 137.234C214.669 135.506 213.114 134.541 213.114 134.541C213.114 134.541 212.663 138.165 214.97 139.911C216.65 141.132 218.431 142.209 220.293 143.13L219.831 140.454Z" fill="#0097F6"/>
<path d="M220.368 143.396C220.368 143.396 219.9 141.957 221.264 139.286C222.628 136.616 223.576 135.038 223.576 135.038C223.576 135.038 225.657 138.021 224.443 140.65C223.518 142.517 222.439 144.303 221.218 145.991L220.368 143.396Z" fill="#0097F6"/>
<path d="M224.553 155.436C224.553 155.436 224.726 153.933 227.073 152.066C229.42 150.199 230.917 149.176 230.917 149.176C230.917 149.176 231.576 152.76 229.373 154.644C227.765 155.959 226.05 157.138 224.247 158.17L224.553 155.436Z" fill="#0097F6"/>
<path d="M223.935 151.725C223.935 151.725 223.674 150.228 221.224 148.5C218.773 146.771 217.224 145.812 217.224 145.812C217.224 145.812 216.773 149.436 219.074 151.182C220.757 152.402 222.54 153.479 224.403 154.401L223.935 151.725Z" fill="#0097F6"/>
<path d="M223.9 159.84C223.9 159.84 224.033 158.326 222.097 156.037C220.16 153.748 218.906 152.413 218.906 152.413C218.906 152.413 217.553 155.794 219.339 158.077C220.659 159.687 222.109 161.186 223.674 162.557L223.9 159.84Z" fill="#0097F6"/>
<path d="M212.039 115.103C212.416 116.64 212.877 118.154 213.421 119.64C214.981 123.761 217.525 126.16 219.016 129.871C220.507 133.582 219.016 138.963 220.49 143.801C221.964 148.638 224.391 151.049 224.409 154.465C224.426 157.881 223.108 167.319 223.108 167.319" stroke="#263238" stroke-width="1.17749" stroke-linecap="round" stroke-linejoin="round"/>
<path d="M213.062 118.958L210.513 117.623" stroke="#263238" stroke-width="1.17749" stroke-linecap="round" stroke-linejoin="round"/>
<path d="M212.612 116.987L213.265 115.149" stroke="#263238" stroke-width="1.17749" stroke-linecap="round" stroke-linejoin="round"/>
<path d="M218.865 129.715C218.865 129.715 216.733 128.628 214.553 127.547" stroke="#263238" stroke-width="1.17749" stroke-linecap="round" stroke-linejoin="round"/>
<path d="M217.409 126.952C218.036 124.973 218.863 123.064 219.877 121.253" stroke="#263238" stroke-width="1.17749" stroke-linecap="round" stroke-linejoin="round"/>
<path d="M220.126 142.604C218.703 140.808 217.029 139.228 215.155 137.911" stroke="#263238" stroke-width="1.17749" stroke-linecap="round" stroke-linejoin="round"/>
<path d="M220.854 144.639C221.191 143.194 221.65 141.781 222.224 140.414C223.027 138.593 223.166 138.356 223.166 138.356" stroke="#263238" stroke-width="1.17749" stroke-linecap="round" stroke-linejoin="round"/>
<path d="M224.299 157.043C225.126 156.015 226.043 155.064 227.038 154.199C227.672 153.729 228.268 153.209 228.819 152.644" stroke="#263238" stroke-width="1.17749" stroke-linecap="round" stroke-linejoin="round"/>
<path d="M224.408 154.465C223.718 153.362 222.945 152.313 222.096 151.326C221.266 150.42 220.364 149.583 219.397 148.823" stroke="#263238" stroke-width="1.17749" stroke-linecap="round" stroke-linejoin="round"/>
<path d="M223.686 162.557C223.594 161.4 223.195 160.288 222.53 159.337C221.478 157.95 220.218 156.112 219.744 155.39" stroke="#263238" stroke-width="1.17749" stroke-linecap="round" stroke-linejoin="round"/>
<path d="M234.772 183.596H219.594C219.292 183.596 219.002 183.478 218.786 183.268C218.57 183.057 218.445 182.77 218.438 182.469L216.259 165.672H238.061L235.882 182.469C235.875 182.763 235.756 183.043 235.55 183.252C235.344 183.461 235.065 183.584 234.772 183.596Z" fill="#263238"/>
<path d="M237.887 168.51H216.282C215.832 168.512 215.4 168.335 215.081 168.018C214.761 167.702 214.58 167.272 214.577 166.822C214.584 166.373 214.765 165.945 215.082 165.627C215.399 165.309 215.827 165.126 216.276 165.117H237.887C238.111 165.116 238.333 165.16 238.539 165.245C238.746 165.33 238.934 165.455 239.093 165.613C239.251 165.771 239.377 165.958 239.463 166.165C239.548 166.371 239.593 166.593 239.592 166.817C239.592 167.04 239.547 167.26 239.461 167.466C239.375 167.672 239.249 167.859 239.091 168.016C238.932 168.174 238.745 168.298 238.538 168.383C238.332 168.468 238.111 168.511 237.887 168.51Z" fill="#263238"/>
<path d="M189.18 101.329C189.179 106.073 187.571 110.676 184.618 114.389C181.665 118.101 177.542 120.704 172.92 121.773H172.857C172.308 121.894 171.759 122.004 171.192 122.085C170.198 122.227 169.196 122.298 168.192 122.299C162.706 122.279 157.446 120.112 153.538 116.262C149.63 112.412 147.385 107.184 147.284 101.699C147.183 96.2142 149.233 90.9074 152.996 86.9156C156.76 82.9237 161.936 80.5641 167.418 80.342C167.609 80.342 167.811 80.342 167.996 80.342C168.057 80.3362 168.119 80.3362 168.181 80.342C168.252 80.3362 168.323 80.3362 168.395 80.342C171.226 80.3602 174.024 80.9603 176.614 82.1049C180.35 83.7416 183.528 86.4315 185.76 89.8456C187.991 93.2598 189.18 97.2503 189.18 101.329Z" fill="#0097F6"/>
<path opacity="0.4" d="M176.625 82.1106C152.39 80.8506 152.274 107.756 152.274 107.756C152.274 107.756 148.575 98.9766 154.615 89.2604C157.99 83.8215 163.863 81.4228 168.406 80.3593C171.237 80.3739 174.034 80.97 176.625 82.1106Z" fill="white"/>
<path d="M189.179 101.329C189.179 106.084 187.564 110.699 184.599 114.416C181.633 118.133 177.493 120.733 172.857 121.79C171.327 122.142 169.762 122.319 168.192 122.316C162.626 122.419 157.247 120.306 153.239 116.443C149.23 112.58 146.92 107.283 146.818 101.716C146.715 96.1502 148.828 90.7712 152.691 86.7628C156.554 82.7543 161.852 80.4446 167.418 80.3419C167.672 80.3419 167.932 80.3419 168.192 80.3419C173.758 80.3435 179.095 82.5551 183.031 86.4906C186.966 90.4261 189.178 95.7634 189.179 101.329Z" stroke="#263238" stroke-linecap="round" stroke-linejoin="round"/>
<path d="M189.179 101.329C189.179 106.084 187.564 110.699 184.598 114.416C181.633 118.133 177.493 120.733 172.857 121.79C172.602 121.79 172.342 121.79 172.082 121.79C166.931 121.777 161.964 119.869 158.127 116.431C154.291 112.993 151.852 108.264 151.276 103.145C150.7 98.0258 152.027 92.8733 155.003 88.6685C157.979 84.4637 162.398 81.5002 167.418 80.3419C167.672 80.3419 167.932 80.3419 168.192 80.3419C173.758 80.3435 179.095 82.5551 183.031 86.4906C186.966 90.4261 189.178 95.7634 189.179 101.329Z" stroke="#263238" stroke-linecap="round" stroke-linejoin="round"/>
<path d="M175.423 114.444L175.966 116.663L172.337 117.548L171.793 115.334C168.545 115.334 165.938 113.224 165.106 109.837L164.857 108.832L168.863 107.381L169.117 108.427C169.62 110.485 170.978 111.473 172.672 111.057C173.043 110.999 173.398 110.861 173.712 110.653C174.025 110.445 174.289 110.171 174.487 109.851C174.684 109.53 174.809 109.171 174.854 108.797C174.899 108.424 174.862 108.045 174.747 107.687C174.261 105.71 171.995 104.473 169.371 103.196C166.268 101.693 163.065 99.7859 162.187 96.1965C161.331 92.6938 162.406 89.7749 165.175 88.3299L164.632 86.1104L168.256 85.2261L168.799 87.4398C171.949 87.3936 174.296 89.4686 175.157 93.0522L175.336 93.7805L171.337 95.2313L171.134 94.4278C170.602 92.2488 169.481 91.3298 167.99 91.6939C166.499 92.058 165.88 93.1967 166.314 94.9654C166.799 96.9421 169.094 98.1328 171.689 99.4622C174.758 101.017 177.995 102.872 178.874 106.456C179.758 109.907 178.348 112.982 175.423 114.444Z" stroke="#263238" stroke-miterlimit="10"/>
<path opacity="0.3" d="M175.423 114.444L175.966 116.663L172.337 117.548L171.793 115.334C168.545 115.334 165.938 113.224 165.106 109.837L164.857 108.832L168.863 107.381L169.117 108.427C169.62 110.485 170.978 111.473 172.672 111.057C173.043 110.999 173.398 110.861 173.712 110.653C174.025 110.445 174.289 110.171 174.487 109.851C174.684 109.53 174.809 109.171 174.854 108.797C174.899 108.424 174.862 108.045 174.747 107.687C174.261 105.71 171.995 104.473 169.371 103.196C166.268 101.693 163.065 99.7859 162.187 96.1965C161.331 92.6938 162.406 89.7749 165.175 88.3299L164.632 86.1104L168.256 85.2261L168.799 87.4398C171.949 87.3936 174.296 89.4686 175.157 93.0522L175.336 93.7805L171.337 95.2313L171.134 94.4278C170.602 92.2488 169.481 91.3298 167.99 91.6939C166.499 92.058 165.88 93.1967 166.314 94.9654C166.799 96.9421 169.094 98.1328 171.689 99.4622C174.758 101.017 177.995 102.872 178.874 106.456C179.758 109.907 178.348 112.982 175.423 114.444Z" fill="black"/>
<path d="M157.465 119.374L161.898 119.172" stroke="#263238" stroke-linecap="round" stroke-linejoin="round"/>
<path d="M155.332 117.9L159.199 117.571" stroke="#263238" stroke-linecap="round" stroke-linejoin="round"/>
<path d="M153.598 116.346L157.464 116.016" stroke="#263238" stroke-linecap="round" stroke-linejoin="round"/>
<path d="M153.066 86.7751H156.378" stroke="#263238" stroke-linecap="round" stroke-linejoin="round"/>
<path d="M154.702 85.2492L158.002 85.0989" stroke="#263238" stroke-linecap="round" stroke-linejoin="round"/>
<path d="M156.771 83.7175L160.251 83.3881" stroke="#263238" stroke-linecap="round" stroke-linejoin="round"/>
<path opacity="0.3" d="M172.92 121.773H172.857C171.327 122.125 169.762 122.302 168.192 122.299C162.706 122.279 157.446 120.112 153.538 116.262C149.63 112.412 147.385 107.184 147.284 101.699C147.183 96.2141 149.233 90.9074 152.996 86.9155C156.76 82.9237 161.936 80.564 167.418 80.3419C167.609 80.3419 167.811 80.3419 167.996 80.3419C162.881 81.9545 154.297 86.0757 152.003 94.6705C148.76 106.884 156.06 120.75 172.92 121.773Z" fill="black"/>
<path opacity="0.1" d="M189.179 101.329C189.179 106.073 187.571 110.676 184.618 114.389C181.665 118.101 177.542 120.704 172.92 121.773H172.857C172.308 121.894 171.759 122.004 171.192 122.085L176.625 82.0933C180.361 83.7325 183.538 86.4249 185.768 89.8412C187.997 93.2575 189.183 97.2496 189.179 101.329Z" fill="black"/>
<path d="M201.086 68.2907C199.424 70.638 197.016 72.3526 194.254 73.1547C191.492 73.9567 188.54 73.7987 185.879 72.7066L185.804 72.6719C185.409 72.4984 185.023 72.3055 184.648 72.0939C184.224 71.8658 183.814 71.611 183.422 71.3309C180.862 69.3756 179.139 66.5212 178.602 63.3446C178.065 60.168 178.754 56.9059 180.529 54.2176C182.305 51.5292 185.034 49.6149 188.167 48.8615C191.299 48.1081 194.601 48.5718 197.404 50.1588L197.688 50.338C197.82 50.4131 197.948 50.5056 198.081 50.5981C198.214 50.6906 198.468 50.8813 198.659 51.0316C201.185 53.0581 202.843 55.9724 203.294 59.1798C203.745 62.3871 202.956 65.6458 201.086 68.2907Z" fill="#0097F6"/>
<path opacity="0.4" d="M181.931 68.464C181.931 68.464 179.856 62.3546 182.613 57.8577C186.081 52.2222 191.393 49.6501 198.624 51.0373C198.624 51.0373 194.705 48.3901 188.145 50.2686C181.584 52.1471 178.064 61.1755 181.931 68.464Z" fill="white"/>
<path d="M201.086 68.2964C199.423 70.6418 197.014 72.3541 194.252 73.154C191.49 73.9539 188.538 73.7941 185.879 72.7008C185.001 72.3422 184.167 71.8845 183.394 71.3367C180.817 69.3603 179.094 66.4731 178.579 63.2671C178.063 60.0612 178.793 56.7794 180.62 54.0946C182.446 51.4099 185.231 49.5256 188.402 48.8282C191.574 48.1307 194.892 48.673 197.676 50.3438C197.803 50.4189 197.936 50.5056 198.063 50.5981C200.807 52.5476 202.665 55.5051 203.232 58.8226C203.799 62.1401 203.027 65.5469 201.086 68.2964Z" stroke="#263238" stroke-linecap="round" stroke-linejoin="round"/>
<path d="M201.086 68.2965C199.423 70.6418 197.014 72.3541 194.252 73.154C191.49 73.9539 188.538 73.7942 185.879 72.7008L185.492 72.4465C182.981 70.6263 181.221 67.9511 180.545 64.9244C179.868 61.8977 180.322 58.7281 181.819 56.012C183.316 53.2959 185.754 51.2207 188.675 50.1768C191.595 49.1329 194.796 49.1923 197.676 50.3438C197.803 50.4189 197.936 50.5056 198.063 50.5981C200.807 52.5476 202.665 55.5051 203.232 58.8226C203.799 62.1401 203.027 65.5469 201.086 68.2965Z" stroke="#263238" stroke-linecap="round" stroke-linejoin="round"/>
<path d="M189.705 69.9842L189.202 71.2673L187.099 70.4408L187.601 69.1519C186.821 68.6023 186.256 67.7983 186.002 66.8778C185.749 65.9572 185.824 64.9774 186.214 64.1059L186.445 63.5279L188.931 64.2042L188.694 64.8169C188.226 66.0075 188.544 66.967 189.526 67.3543C189.73 67.4558 189.954 67.5118 190.181 67.5183C190.409 67.5249 190.636 67.4818 190.845 67.3922C191.054 67.3026 191.242 67.1686 191.394 66.9993C191.547 66.8301 191.661 66.6298 191.728 66.4121C192.179 65.2561 191.491 63.8632 190.642 62.3199C189.636 60.4934 188.723 58.4357 189.538 56.3549C190.353 54.2741 191.89 53.2569 193.757 53.5112L194.266 52.228L196.364 53.0546L195.861 54.3319C197.433 55.407 197.867 57.2219 197.052 59.3316L196.884 59.7478L194.399 59.0715L194.584 58.6034C195.081 57.3433 194.849 56.4937 194.006 56.1526C193.162 55.8116 192.439 56.1526 192.035 57.1873C191.584 58.3433 192.306 59.7189 193.121 61.2795C194.098 63.1233 195.046 65.1694 194.231 67.2445C193.922 68.1623 193.298 68.941 192.469 69.4425C191.641 69.944 190.662 70.1359 189.705 69.9842Z" stroke="#263238" stroke-miterlimit="10"/>
<path opacity="0.3" d="M189.705 69.9842L189.202 71.2673L187.099 70.4408L187.601 69.1519C186.821 68.6023 186.256 67.7983 186.002 66.8778C185.749 65.9572 185.824 64.9774 186.214 64.1059L186.445 63.5279L188.931 64.2042L188.694 64.8169C188.226 66.0075 188.544 66.967 189.526 67.3543C189.73 67.4558 189.954 67.5118 190.181 67.5183C190.409 67.5249 190.636 67.4818 190.845 67.3922C191.054 67.3026 191.242 67.1686 191.394 66.9993C191.547 66.8301 191.661 66.6298 191.728 66.4121C192.179 65.2561 191.491 63.8632 190.642 62.3199C189.636 60.4934 188.723 58.4357 189.538 56.3549C190.353 54.2741 191.89 53.2569 193.757 53.5112L194.266 52.228L196.364 53.0546L195.861 54.3319C197.433 55.407 197.867 57.2219 197.052 59.3316L196.884 59.7478L194.399 59.0715L194.584 58.6034C195.081 57.3433 194.849 56.4937 194.006 56.1526C193.162 55.8116 192.439 56.1526 192.035 57.1873C191.584 58.3433 192.306 59.7189 193.121 61.2795C194.098 63.1233 195.046 65.1694 194.231 67.2445C193.922 68.1623 193.298 68.941 192.469 69.4425C191.641 69.944 190.662 70.1359 189.705 69.9842Z" fill="black"/>
<path opacity="0.3" d="M197.375 50.1645C193.907 49.5461 189.515 49.205 187.145 50.7425C182.793 53.5343 180.082 57.0543 180.122 62.7591C180.163 68.464 185.492 72.4638 185.492 72.4638L185.804 72.6892C184.954 72.3342 184.146 71.8864 183.394 71.354C180.833 69.3986 179.11 66.5443 178.573 63.3677C178.036 60.191 178.725 56.929 180.501 54.2406C182.276 51.5523 185.006 49.638 188.138 48.8846C191.27 48.1312 194.572 48.5948 197.375 50.1819V50.1645Z" fill="black"/>
<path opacity="0.1" d="M201.086 68.2907C199.424 70.638 197.016 72.3526 194.254 73.1547C191.492 73.9567 188.54 73.7987 185.879 72.7066L185.804 72.6719C185.409 72.4984 185.024 72.3055 184.648 72.0939L198.624 51.0374C201.154 53.0588 202.818 55.9696 203.276 59.1758C203.733 62.3821 202.95 65.6421 201.086 68.2907Z" fill="black"/>
<path d="M194.543 231.061C189.163 237.533 182.749 243.07 175.562 247.448C173.322 248.788 171.006 249.996 168.626 251.066C152.205 258.447 133.489 258.927 115.987 254.684C79.186 245.766 59.6612 213.282 57.1816 177.221C56.5169 167.475 55.0256 156.95 58.9734 147.679C62.9211 138.408 70.9033 132.651 79.9317 128.651C86.4862 125.732 93.5667 123.773 99.9998 122.172C111.642 119.296 123.922 120.563 134.732 125.755C142.298 129.345 147.685 135.581 154.049 140.835C154.723 141.39 155.401 141.943 156.083 142.494C162.512 147.669 169.269 152.42 176.313 156.719C187.012 163.245 197.965 169.4 204.803 180.359C215.71 197.826 206.508 216.842 194.543 231.061Z" fill="#0097F6"/>
<path opacity="0.4" d="M194.543 231.061C189.163 237.533 182.749 243.07 175.562 247.448C173.322 248.788 171.006 249.996 168.626 251.066C152.205 258.447 133.489 258.927 115.987 254.684C79.186 245.766 59.6612 213.282 57.1816 177.221C56.5169 167.475 55.0256 156.95 58.9734 147.679C62.9211 138.408 70.9033 132.651 79.9317 128.651C86.4862 125.732 93.5667 123.773 99.9998 122.172C111.642 119.296 123.922 120.563 134.732 125.755C142.298 129.345 147.685 135.581 154.049 140.835C154.723 141.39 155.401 141.943 156.083 142.494C162.512 147.669 169.269 152.42 176.313 156.719C187.012 163.245 197.965 169.4 204.803 180.359C215.71 197.826 206.508 216.842 194.543 231.061Z" fill="white"/>
<path d="M156.06 142.494C155.378 141.947 154.7 141.392 154.025 140.83C147.667 135.564 142.269 129.345 134.709 125.755C123.898 120.566 111.619 119.299 99.9766 122.172C84.677 125.969 65.7012 131.819 58.9386 147.685C54.9909 156.933 56.4821 167.475 57.1526 177.221C59.6611 213.282 79.186 245.766 115.987 254.684C136.009 259.539 157.603 258.21 175.562 247.448C182.749 243.07 189.163 237.533 194.543 231.061C206.508 216.842 215.71 197.826 204.814 180.359C197.982 169.377 187.029 163.245 176.325 156.719C169.269 152.421 162.5 147.67 156.06 142.494Z" stroke="#263238" stroke-miterlimit="10"/>
<path d="M100.312 206.797C97.2479 207.724 94.2745 208.927 91.428 210.392" stroke="#263238" stroke-linecap="round" stroke-linejoin="round"/>
<path d="M119.068 203.225C114.592 203.612 110.15 204.317 105.774 205.334" stroke="#263238" stroke-linecap="round" stroke-linejoin="round"/>
<path d="M115.167 202.3C115.167 202.3 97.8959 192.254 77.0532 200.306" stroke="#263238" stroke-linecap="round" stroke-linejoin="round"/>
<path opacity="0.1" d="M194.543 231.061C189.163 237.533 182.749 243.07 175.562 247.448C173.322 248.788 171.006 249.996 168.626 251.066C166.746 250.49 164.9 249.813 163.094 249.037C152.309 244.413 143.257 236.593 134.414 228.882C129.079 224.258 123.657 219.519 117.27 216.473C108.633 212.389 98.8075 211.579 89.6188 214.195C94.3712 208.831 100.832 205.276 107.907 204.132C103.341 199.976 96.9883 198.231 90.8153 198.121C84.6422 198.011 81.2436 198.768 75.2093 200.121C77.2265 196.41 82.5788 193.052 86.804 193.15C82.7874 193.097 78.7772 192.813 74.7931 192.301C69.3426 191.422 66.9034 185.006 66.0884 179.55C63.8342 164.522 66.1173 148.517 74.3192 135.743C75.9429 133.195 77.8215 130.819 79.9258 128.651C86.4803 125.732 93.5608 123.773 99.9939 122.172C111.636 119.296 123.916 120.563 134.726 125.755C142.292 129.345 147.679 135.581 154.043 140.835C154.717 141.39 155.395 141.943 156.077 142.494C162.506 147.669 169.263 152.42 176.307 156.719C187.006 163.245 197.959 169.4 204.797 180.359C215.71 197.826 206.508 216.842 194.543 231.061Z" fill="black"/>
<path d="M200.566 230.622C203.807 233.316 207.197 235.825 210.721 238.136C217.594 238.598 214.513 246.904 214.513 246.904L208.629 250.69C208.629 250.69 198.555 242.685 193.052 240.09C187.549 237.494 200.566 230.622 200.566 230.622Z" fill="white"/>
<path opacity="0.3" d="M151.731 143.171C151.731 143.171 150.789 133.847 149.286 131.229L126.466 126.582V124.813C126.466 124.813 126.992 121.738 121.906 119.814C116.82 117.889 106.219 120.392 103.485 122.461C100.751 124.53 101.751 128.091 101.751 128.091C101.751 128.091 92.5609 132.732 88.434 134.501C85.0557 136.059 81.7623 137.796 78.5675 139.703C78.5675 139.703 76.6948 161.135 77.0647 166.111C77.4347 171.088 76.7642 175.77 77.1919 178.527C77.6196 181.284 77.9549 182.85 80.8449 185.197C83.7349 187.544 86.3648 190.977 93.9423 187.572L92.8846 186.734L142.766 169.932L151.731 143.171Z" fill="black"/>
<path d="M151.731 143.171C151.731 143.171 150.789 133.847 149.286 131.229L126.466 126.582V124.813C126.466 124.813 126.992 121.738 121.906 119.814C116.82 117.889 106.219 120.392 103.485 122.461C100.751 124.53 101.751 128.091 101.751 128.091C101.751 128.091 92.5609 132.732 88.434 134.501C85.0557 136.059 81.7623 137.796 78.5675 139.703C78.5675 139.703 76.6948 161.135 77.0647 166.111C77.4347 171.088 76.7642 175.77 77.1919 178.527C77.6196 181.284 77.9549 182.85 80.8449 185.197C83.7349 187.544 86.3648 190.977 93.9423 187.572L92.8846 186.734L142.766 169.932L151.731 143.171Z" fill="#0097F6"/>
<path opacity="0.05" d="M151.731 143.171C151.731 143.171 150.789 133.847 149.286 131.229L126.466 126.582V124.813C126.466 124.813 126.992 121.738 121.906 119.814C116.82 117.889 106.219 120.392 103.485 122.461C100.751 124.53 101.751 128.091 101.751 128.091C101.751 128.091 92.5609 132.732 88.434 134.501C85.0557 136.059 81.7623 137.796 78.5675 139.703C78.5675 139.703 76.6948 161.135 77.0647 166.111C77.4347 171.088 76.7642 175.77 77.1919 178.527C77.6196 181.284 77.9549 182.85 80.8449 185.197C83.7349 187.544 86.3648 190.977 93.9423 187.572L92.8846 186.734L142.766 169.932L151.731 143.171Z" fill="black"/>
<path opacity="0.1" d="M149.586 132.362H140.038C139.14 132.363 138.272 132.683 137.587 133.264C136.902 133.845 136.446 134.65 136.298 135.535L131.593 163.857C131.593 163.857 125.114 164.395 120.525 167.741C115.935 171.088 104.647 147.211 86.8098 147.199C86.8098 147.199 91.9425 158.933 93.0811 168.296C93.0811 168.296 81.9315 167.082 80.0819 171.446C78.2323 175.81 80.92 183.989 85.6365 180.821C90.353 177.654 94.792 172.371 97.9421 175.712C101.092 179.053 115.167 180.85 115.167 180.85L136.824 169.932L145.223 165.984L149.586 132.362Z" fill="black"/>
<path opacity="0.4" d="M119.27 118.322C119.27 118.322 124.692 119.825 125.571 121.646C126.449 123.467 126.357 128.073 126.357 128.073C125.041 131.152 123.047 133.894 120.525 136.096L116.479 128.073L116.843 137.171C116.843 137.171 109.167 135.894 105.907 133.443L102.653 130.986C102.653 130.986 101.248 126.362 101.451 124.796C101.653 123.23 107.508 120.051 107.508 120.051L119.27 118.322Z" fill="white"/>
<path d="M209.577 258.609C209.427 258.279 211.802 254.083 209.941 249.812C208.08 245.54 205.115 247.187 205.115 247.187C205.115 247.187 196.67 241.812 193.121 240.113C190.564 238.828 188.102 237.364 185.752 235.731L182.001 240.783L185.469 251.511L209.577 258.609Z" fill="#0097F6"/>
<path d="M204.809 246.927L215.652 253.551C215.652 253.551 223.276 248.661 226.911 245.286C230.547 241.91 238.714 234.72 238.714 234.72L243.916 227.72C243.916 227.72 240.309 223.258 234.298 226.842C226.53 231.466 217.056 238.182 210.739 238.119C210.739 238.119 211.982 245.881 204.849 246.927" fill="#0097F6"/>
<path d="M117.432 90.3009C117.432 90.3009 122.351 97.7455 123.247 100.156C124.143 102.566 124.865 106.132 124.686 107.849C124.507 109.566 122.704 118.762 121.796 119.028L120.923 120.016L121.501 123.912C121.501 123.912 117.652 130.564 106.335 125.686C106.335 125.686 105.895 117.918 104.52 115.479C103.144 113.039 101.087 115.941 99.0231 108.895C96.9596 101.849 103.531 94.4452 103.531 94.4452L117.432 90.3009Z" fill="white"/>
<path opacity="0.5" d="M239.194 225.547C239.194 225.547 233.616 226.518 231.807 229.819C229.998 233.119 226.524 239.251 225.339 242.217C224.154 245.182 214.357 252.343 214.357 252.343L215.657 253.551C215.657 253.551 223.634 248.621 228.449 243.933C233.263 239.246 243.881 227.455 243.881 227.455C243.881 227.455 243.118 226.697 239.194 225.547Z" fill="white"/>
<path opacity="0.5" d="M183.382 238.928L182.001 240.783L186.243 249.58L209.577 257.967L210.658 254.551C210.658 254.551 211.016 251.083 202.826 248.447C194.636 245.812 189.642 244.072 187.313 242.263C184.983 240.454 183.382 238.928 183.382 238.928Z" fill="white"/>
<path d="M106.352 173.591C106.352 173.591 99.2078 172.516 95.8728 178.359C92.5377 184.203 92.8787 186.734 92.8787 186.734C92.8787 186.734 97.601 191.023 104.092 190.78C110.583 190.538 120.033 183.105 123.114 180.683C126.195 178.261 133.963 171.331 139.263 172.764L139.841 167.753C139.841 167.753 139.321 165.505 134.79 166.111C130.258 166.718 128.478 169.302 127.015 169.302C125.553 169.302 124.172 167.897 121.235 172.914C121.23 172.914 110.924 174.741 106.352 173.591Z" fill="white"/>
<path d="M115.635 101.005C115.787 101.942 116.003 102.867 116.282 103.774C116.387 104.217 116.584 104.632 116.86 104.994C117.403 105.572 118.282 105.722 119.085 105.843C119.218 105.853 119.344 105.906 119.444 105.994C119.509 106.097 119.539 106.219 119.53 106.34C119.526 107.251 119.252 108.14 118.744 108.895" stroke="#263238" stroke-linecap="round" stroke-linejoin="round"/>
<path opacity="0.1" d="M188.174 232.934L183.382 238.905C183.382 238.905 188.642 243.766 194.087 245.569C199.531 247.372 209.063 250.771 210.658 253.389L210.045 250.274C210.045 250.274 195.139 241.13 191.717 238.945C190.705 238.282 189.86 237.394 189.245 236.352C188.631 235.31 188.264 234.14 188.174 232.934Z" fill="black"/>
<path opacity="0.1" d="M204.809 246.927L214.351 252.343C214.351 252.343 219.062 249.118 221.374 246.742C223.686 244.367 226.536 241.731 228.31 236.408C230.732 229.05 237.668 225.547 237.668 225.547C237.668 225.547 228.021 230.09 222.998 233.639C217.975 237.188 213.08 238.691 210.236 238.448C210.207 238.465 212.49 245.69 204.809 246.927Z" fill="black"/>
<path d="M112.271 110.207C112.271 110.207 116.022 113.149 119.918 112.045C119.918 112.045 116.242 119.328 112.271 110.207Z" fill="white" stroke="#263238" stroke-linecap="round" stroke-linejoin="round"/>
<path d="M112.132 103.849C112.242 104.658 111.993 105.358 111.589 105.416C111.184 105.473 110.762 104.838 110.652 104.046C110.543 103.254 110.785 102.537 111.196 102.479C111.606 102.422 112.045 103.04 112.132 103.849Z" fill="#263238"/>
<path d="M120.299 102.375C120.403 103.19 120.16 103.89 119.756 103.942C119.351 103.994 118.923 103.364 118.819 102.578C118.715 101.791 118.952 101.063 119.363 101.011C119.773 100.959 120.189 101.566 120.299 102.375Z" fill="#263238"/>
<path d="M111.554 100.416C111.554 100.416 109.369 99.2888 107.814 101.705" stroke="#263238" stroke-linecap="round" stroke-linejoin="round"/>
<path d="M117.155 98.9131C117.155 98.9131 119.467 96.9306 120.802 98.9131" stroke="#263238" stroke-linecap="round" stroke-linejoin="round"/>
<path d="M104.132 107.855C104.132 107.855 102.728 105.78 101.242 105.843C99.7569 105.907 99.1673 107.988 99.6991 109.999C100.231 112.011 102.445 114.82 104.121 114.554C105.066 114.432 105.929 113.952 106.531 113.213" stroke="#263238" stroke-linecap="round" stroke-linejoin="round"/>
<path d="M117.6 91.9771C119.178 93.2891 120.848 94.7168 121.646 96.6473C122.351 98.2888 122.507 100.115 123.154 101.774C123.842 103.549 124.594 105.404 124.651 107.34C124.621 109.132 124.386 110.914 123.952 112.652C123.712 114.159 123.355 115.645 122.883 117.097C122.102 119.172 120.663 120.449 118.733 121.432C117.328 122.149 114.987 123.166 113.467 122.206C112.583 121.628 111.253 119.975 110.149 118.455" stroke="#263238" stroke-linecap="round" stroke-linejoin="round"/>
<path d="M104.133 114.554C104.133 114.554 106.618 120.646 106.017 124.929" stroke="#263238" stroke-linecap="round" stroke-linejoin="round"/>
<path d="M103.497 106.832C103.828 106.587 104.09 106.261 104.258 105.885C104.426 105.51 104.494 105.097 104.456 104.687C104.364 103.751 103.716 102.884 103.844 101.948C103.95 101.499 104.117 101.067 104.341 100.664C104.677 99.8868 104.825 99.0408 104.773 98.1951C104.721 97.3493 104.47 96.5279 104.04 95.7977C104.04 95.7977 111.936 96.1676 115.635 93.8151C119.334 91.4627 122.155 85.4457 119.918 82.573C117.681 79.7004 113.323 83.6192 110.092 84.0527C106.861 84.4862 95.3701 86.3185 93.5379 90.7459C91.7056 95.1734 94.4973 96.7629 94.584 100.988C94.6707 105.213 94.6707 113.219 100.988 112.485C100.988 112.485 98.6243 109.427 100.266 106.277C101.381 104.953 103.497 106.832 103.497 106.832Z" fill="#263238"/>
<path d="M118.981 87.5669C120.054 88.4019 120.942 89.4486 121.593 90.6418C122.243 91.8351 122.641 93.1493 122.762 94.5029C123.114 97.6703 128.732 103.826 124.68 107.334C124.68 107.334 123.738 103.606 123.183 101.768C122.629 99.9303 121.918 96.5664 120.987 95.4104C120.056 94.2544 115.12 90.2084 115.12 90.2084L118.981 87.5669Z" fill="#263238"/>
<path d="M104.861 124.796C104.861 124.796 108.756 127.362 115.993 127.466L116.843 137.171C116.843 137.171 108.704 136.552 102.653 130.986C102.653 130.986 101.017 126.657 101.451 124.796C101.884 122.935 105.774 121.091 105.774 121.091" stroke="#263238" stroke-linecap="round" stroke-linejoin="round"/>
<path d="M121.23 120.455L121.461 123.923C119.935 125.512 118.064 126.728 115.993 127.478L120.524 136.107C120.524 136.107 125.929 131.9 126.466 127.478C126.466 127.478 126.513 122.952 125.57 121.657C124.628 120.363 121.195 119.756 121.195 119.756" stroke="#263238" stroke-linecap="round" stroke-linejoin="round"/>
<path opacity="0.8" d="M99.3003 93.636C99.8783 92.1852 101.462 91.324 103.005 91.0928C104.549 90.8616 106.132 91.0234 107.693 90.983C109.854 90.9655 111.97 90.3666 113.82 89.249C114.739 88.6893 115.538 87.9541 116.173 87.0854C116.808 86.2166 117.265 85.2312 117.519 84.1857" stroke="white" stroke-linecap="round" stroke-linejoin="round"/>
<path opacity="0.8" d="M95.5723 93.3527C96.5491 90.3876 99.7165 88.5553 102.832 88.2952C104.375 88.1623 105.936 88.3415 107.456 88.1623C108.976 87.9831 110.594 87.3473 111.398 86.0237" stroke="white" stroke-linecap="round" stroke-linejoin="round"/>
<path d="M93.9308 187.573C86.4168 191.468 83.7464 187.457 79.5617 184.139C75.377 180.822 78.1225 174.891 77.2497 165.383C76.3769 155.875 78.5502 139.703 78.5502 139.703C78.5502 139.703 80.4229 139.275 85.6191 136.096C90.8154 132.917 101.751 128.073 101.751 128.073" stroke="#263238" stroke-linecap="round" stroke-linejoin="round"/>
<path d="M101.375 173.18C101.375 173.18 100.185 169.406 96.8207 169.308C93.4568 169.209 88.1507 170.724 84.3706 177.874" stroke="#263238" stroke-linecap="round" stroke-linejoin="round"/>
<path d="M96.052 169.082C95.843 169.069 95.6379 169.02 95.4451 168.938C92.672 167.94 89.6621 167.803 86.8098 168.545" stroke="#263238" stroke-linecap="round" stroke-linejoin="round"/>
<path d="M84.8735 144.864C90.9946 151.627 93.977 160.574 96.8035 169.244" stroke="#263238" stroke-linecap="round" stroke-linejoin="round"/>
<path d="M126.466 126.582C126.466 126.582 137.564 129.229 142.986 129.859C148.407 130.489 149.286 131.246 149.286 131.246L150.297 135.026" stroke="#263238" stroke-linecap="round" stroke-linejoin="round"/>
<path d="M178.18 133.16L140.385 134.61L137.298 173.481H143.772L176.591 166.134L180.717 134.09L178.18 133.16Z" fill="white"/>
<path d="M139.263 174.631L180.602 135.009L176.59 166.134L139.263 174.631Z" fill="#0097F6"/>
<path opacity="0.7" d="M139.263 174.631L180.602 135.009L176.59 166.134L139.263 174.631Z" fill="white"/>
<path d="M139.263 173.591L142.569 136.096L180.717 134.09L176.59 166.135L139.263 173.591Z" stroke="#263238" stroke-linecap="round" stroke-linejoin="round"/>
<path d="M164.638 152.257C164.383 154.54 163.164 156.274 161.915 156.135C160.667 155.996 159.869 154.025 160.123 151.742C160.378 149.459 161.603 147.725 162.852 147.864C164.1 148.003 164.898 149.974 164.638 152.257Z" fill="#263238"/>
<path d="M176.59 166.135C176.59 166.135 194.058 165.637 199.52 169.244C204.982 172.851 208.19 190.937 207.433 200.543C206.675 210.149 200.086 232.194 200.086 232.194L187.463 217.906C187.463 217.906 181.243 195.295 184.636 186.44C184.636 186.44 167.874 187.382 161.273 185.313C161.273 185.313 155.361 175.631 145.222 172.429L176.59 166.135Z" fill="#263238"/>
<path d="M202.751 232.57C198.267 228.384 194.241 223.734 190.74 218.698C184.631 209.259 176.186 200.202 167.499 193.133C160.499 187.457 158.915 178.209 150.28 173.568C135.975 165.898 123.605 181.139 118.981 184.226C114.357 187.312 106.352 190.809 106.352 190.809C106.352 190.809 109.277 201.791 117.866 203.092C126.455 204.392 135.142 198.468 139.252 201.329C143.361 204.19 146.402 216.964 159.973 224.449C171.065 230.564 186.18 236.529 193.977 240.552C195.711 241.454 197.006 242.402 197.988 242.939C200.682 244.407 203.56 246.136 206.277 247.846L215.635 253.545C215.635 253.545 225.027 247.991 228.634 242.87C229.113 242.182 230.113 240.35 231.05 238.581C233.09 234.714 235.674 231.246 239.252 229.333C241.725 227.998 243.928 227.599 243.876 227.46C243.639 227.021 239.153 224.726 236.107 225.981C229.657 228.645 216.762 238.882 210.675 238.119C207.844 236.556 205.188 234.695 202.751 232.57Z" stroke="#263238" stroke-miterlimit="10"/>
<path d="M202.751 232.57C197.127 234.841 194.861 238.35 193.994 240.558C186.197 236.512 171.082 230.57 159.99 224.455C146.419 216.941 143.402 204.19 139.269 201.335C135.136 198.479 126.443 204.421 117.883 203.098C109.323 201.774 106.352 190.804 106.352 190.804C106.352 190.804 114.363 187.336 118.987 184.249C123.611 181.163 134.275 165.915 150.28 173.591C159.118 177.827 160.499 187.463 167.499 193.156C176.169 200.202 184.631 209.282 190.74 218.721C194.233 223.757 198.26 228.4 202.751 232.57Z" fill="#263238"/>
<path d="M160.488 183.567C160.488 183.567 156.158 174.77 149.217 173.065" stroke="white" stroke-linecap="round" stroke-linejoin="round"/>
<path d="M137.795 166.054C133.021 165.013 127.778 170.29 125.571 169.302C123.929 168.568 121.23 172.914 121.23 172.914C116.787 173.556 112.294 173.782 107.809 173.591C101.375 173.18 98.3294 174.435 96.052 177.874L92.873 186.295C92.873 186.295 101.26 193.809 110.213 189.434C119.166 185.058 131.062 171.857 139.258 171.903" stroke="#263238" stroke-linecap="round" stroke-linejoin="round"/>
<path d="M204.444 246.702C204.444 246.702 212.282 247.343 210.444 237.98" stroke="#263238" stroke-miterlimit="10"/>
<path d="M241.378 232.194C240.8 233.35 233.616 239.465 227.426 244.812C227.426 244.731 229.16 241.465 229.876 240.072C231.524 236.997 235.778 228.564 243.875 227.454C245.026 228.148 241.378 232.194 241.378 232.194Z" fill="#263238"/>
<path d="M238.298 225.611C230.107 227.241 228.246 237.749 225.339 242.217C222.432 246.685 214.357 252.759 214.357 252.759" stroke="#263238" stroke-miterlimit="10"/>
<path d="M209.941 250.077C211.276 252.517 210.646 255.349 209.941 257.123C209.596 258.005 209.166 258.85 208.658 259.649C197.063 257.742 185.469 251.511 185.469 251.511L182.48 242.263L182.001 240.783L186.503 234.72" stroke="#263238" stroke-miterlimit="10"/>
<path d="M209.941 257.123C209.596 258.004 209.166 258.85 208.658 259.649C197.063 257.742 185.469 251.511 185.469 251.511L182.48 242.263C183.977 244.216 186.752 247.078 190.913 248.251C196.561 249.852 206.982 251.725 209.941 257.123Z" fill="#263238"/>
<path d="M137.298 172.128L140.385 134.61L178.18 133.16L180.717 134.09" stroke="#263238" stroke-linecap="round" stroke-linejoin="round"/>
<path d="M210.392 242.217C210.392 242.217 215.559 243.141 219.53 239.905C223.501 236.668 229.9 229.345 229.9 229.345" stroke="#263238" stroke-miterlimit="10"/>
<path d="M215.652 237.558C215.652 237.558 214.403 239.436 215.652 243.205" stroke="#263238" stroke-linecap="round" stroke-linejoin="round"/>
<path d="M219.316 235.76C218.748 237.634 218.916 239.653 219.784 241.407" stroke="#263238" stroke-linecap="round" stroke-linejoin="round"/>
<path d="M223.686 233.229C223.686 233.229 222.64 236.367 223.686 239.136" stroke="#263238" stroke-linecap="round" stroke-linejoin="round"/>
<path d="M187.526 233.94L183.382 238.928C183.382 238.928 187.555 243.488 193.445 245.384C199.335 247.28 209.854 250.499 210.727 253.927" stroke="#263238" stroke-miterlimit="10"/>
</svg>
