<svg xmlns="http://www.w3.org/2000/svg" xmlns:xlink="http://www.w3.org/1999/xlink" width="472" height="76" fill="none" xmlns:v="https://vecta.io/nano"><path d="M14.114 15.658v51.588c0 3.708-3.089 6.797-6.899 6.797-3.708 0-6.797-3.089-6.797-6.797V8.76c0-3.706 3.089-6.795 6.797-6.795H41.71a6.79 6.79 0 0 1 4.806 1.989 6.79 6.79 0 0 1 1.989 4.806c0 3.81-2.986 6.899-6.795 6.899H14.114v-.001z" fill="#0080ec"/><g fill="#fff"><path d="M27.706 32.854a6.9 6.9 0 0 1 6.899 6.899c0 3.708-3.089 6.797-6.899 6.797-3.708 0-6.797-3.089-6.797-6.797 0-3.81 3.089-6.899 6.797-6.899z"/><use xlink:href="#B"/></g><g fill="#0080ec"><use xlink:href="#C"/><path d="M156.334 49.64V29.251c0-3.81 3.089-6.899 6.795-6.899 3.811 0 6.9 3.089 6.9 6.797v37.274c0 2.368-.515 4.428-2.575 6.178-1.648 1.236-4.222 2.163-7.104.722-1.545-.824-2.368-1.751-3.501-3.089l-35.73-43.763v40.776c0 3.708-3.089 6.797-6.899 6.797-3.708 0-6.797-3.089-6.797-6.797V10.202c0-2.574.309-5.663 3.604-7.413 2.574-1.443 5.971-1.236 9.164 2.47l36.142 44.38.001.001z"/></g><path d="M170.029 8.76c0 3.81-3.089 6.797-6.797 6.797-3.81 0-6.899-2.987-6.899-6.797s3.089-6.795 6.899-6.795a6.79 6.79 0 0 1 2.602.515c.825.341 1.574.842 2.206 1.473a6.79 6.79 0 0 1 1.989 4.807z" fill="#fff"/><path d="M269.35 69.202c-.927 2.78-3.398 4.737-6.281 4.84s-5.561-1.648-6.59-4.325l-17.196-43.658-17.195 43.658c-1.031 2.574-3.501 4.325-6.281 4.325h-.309c-2.884-.103-5.354-2.06-6.178-4.84l-18.329-58.383c-1.133-3.604.927-7.414 4.428-8.546 3.603-1.133 7.516.926 8.648 4.53l12.563 42.115 16.372-42.629c1.029-2.575 3.501-4.325 6.28-4.325s5.356 1.75 6.385 4.325l16.372 42.629 6.383-22.654c1.133-3.604 5.045-5.561 8.65-4.428 3.501 1.133 5.561 4.944 4.427 8.546L269.35 69.201v.001z" fill="#0080ec"/><g fill="#fff"><path d="M287.884 8.759c0 3.81-2.986 6.899-6.795 6.899s-6.797-3.089-6.797-6.899c0-1.802.716-3.531 1.991-4.806s3.003-1.99 4.805-1.99 3.531.716 4.805 1.99 1.991 3.003 1.991 4.806z"/><use xlink:href="#B" x="243.055"/></g><use xlink:href="#C" x="243.055" fill="#0080ec"/><path d="M358.559 59.524c0 3.81-3.089 6.797-6.899 6.797-3.708 0-6.797-2.987-6.797-6.797a6.79 6.79 0 0 1 1.989-4.807 6.8 6.8 0 0 1 2.206-1.473 6.79 6.79 0 0 1 2.602-.515c3.81 0 6.899 2.986 6.899 6.795z" fill="#fff"/><path d="M375.447 75.896c-5.356 0-12.563-2.06-12.563-7.311 0-4.325 2.882-6.693 6.281-6.487 3.501.205 7.311 1.441 11.017-.31 2.884-1.338 5.045-3.913 5.045-7.516 0-4.325-4.839-7.105-15.342-10.915-9.474-3.398-23.683-7.619-23.786-21.727 0-5.354 2.06-10.4 5.869-14.313 3.296-3.296 9.37-7.209 19.977-7.209 12.046 0 20.079 6.385 22.756 10.194 1.853 2.472 1.545 5.766-.309 8.135-2.472 3.089-6.178 2.78-8.753.515-1.853-1.648-6.178-5.973-14.106-5.973-6.9 0-11.739 3.604-11.739 8.65 0 3.294 3.604 6.075 14.313 10.194 13.18 5.045 24.816 10.605 24.816 23.271 0 10.193-7.105 20.799-23.476 20.799v.003zm54.332-1.854c-3.706 0-6.795-3.089-6.795-6.797V8.759a6.86 6.86 0 0 1 6.795-6.795h14.211a6.86 6.86 0 0 1 6.795 6.795c0 3.81-3.089 6.899-6.795 6.899h-7.311v15.755h23.888c3.81 0 6.795 2.78 6.795 6.59 0 3.706-2.986 6.487-6.795 6.487h-23.888v15.857h28.11c3.81 0 6.795 3.089 6.795 6.899a6.79 6.79 0 0 1-1.988 4.808c-.631.631-1.381 1.132-2.205 1.473a6.79 6.79 0 0 1-2.602.516h-35.01v-.001z" fill="#0080ec"/><path d="M464.481 15.658a6.9 6.9 0 0 1-6.899-6.899c0-3.706 3.089-6.795 6.899-6.795a6.86 6.86 0 0 1 6.795 6.795c0 3.81-3.089 6.899-6.795 6.899z" fill="#fff"/><defs ><path id="B" d="M66.916 6.907c0-3.708 3.089-6.797 6.797-6.797 3.81 0 6.899 3.089 6.899 6.797a6.9 6.9 0 0 1-6.899 6.899c-3.708 0-6.797-3.089-6.797-6.899z"/><path id="C" d="M66.916 67.247V27.398c0-3.706 3.089-6.795 6.797-6.795 3.81 0 6.899 3.089 6.899 6.795v39.849c0 3.708-3.089 6.797-6.899 6.797-3.708 0-6.797-3.089-6.797-6.797z"/></defs></svg>